<?xml version="1.0" encoding="UTF-8" standalone="no"?>
<!DOCTYPE svg PUBLIC "-//W3C//DTD SVG 1.1//EN" "http://www.w3.org/Graphics/SVG/1.1/DTD/svg11.dtd">
<svg width="100%" height="100%" viewBox="0 0 256 256" version="1.1" xmlns="http://www.w3.org/2000/svg" xmlns:xlink="http://www.w3.org/1999/xlink" xml:space="preserve" xmlns:serif="http://www.serif.com/" style="fill-rule:evenodd;clip-rule:evenodd;stroke-linejoin:round;stroke-miterlimit:2;">
    <g>
        <g transform="matrix(2.58629,0,0,2.58629,-258.986,-208.146)">
            <path d="M173.603,151.125L170.782,153.945L128.478,153.945L125.658,151.125L125.658,108.82L128.478,106L170.782,106L173.603,108.82L173.603,151.125ZM168.963,109.093C168.109,109.093 167.416,109.786 167.416,110.64C167.416,111.493 168.109,112.186 168.963,112.186C169.816,112.186 170.51,111.493 170.51,110.64C170.51,109.786 169.816,109.093 168.963,109.093Z" style="fill:white;"/>
        </g>
        <g transform="matrix(4.50514,0,0,4.50514,-546.105,-457.545)">
            <path d="M173.603,150.521L170.178,153.945L129.082,153.945L125.658,150.521L125.658,109.425L129.082,106L170.178,106L173.603,109.425L173.603,150.521ZM172.271,149.95L172.271,109.995L169.607,107.332L129.653,107.332L126.989,109.995L126.989,149.95L129.653,152.613L169.607,152.613L172.271,149.95Z" style="fill:white;"/>
        </g>
        <g>
            <g transform="matrix(1,0,0,1,-2,0)">
                <path d="M70,11L75,18L45,18L50,11L70,11Z" style="fill:white;"/>
            </g>
            <g transform="matrix(1,0,0,1,33,0)">
                <path d="M70,11L75,18L45,18L50,11L70,11Z" style="fill:white;"/>
            </g>
            <g transform="matrix(1,0,0,1,68,0)">
                <path d="M70,11L75,18L45,18L50,11L70,11Z" style="fill:white;"/>
            </g>
            <g transform="matrix(1,0,0,1,103,0)">
                <path d="M70,11L75,18L45,18L50,11L70,11Z" style="fill:white;"/>
            </g>
            <g transform="matrix(1,0,0,1,138,0)">
                <path d="M70,11L75,18L45,18L50,11L70,11Z" style="fill:white;"/>
            </g>
        </g>
        <g transform="matrix(1,0,0,-1,0,256)">
            <g transform="matrix(1,0,0,1,-2,0)">
                <path d="M70,11L75,18L45,18L50,11L70,11Z" style="fill:white;"/>
            </g>
            <g transform="matrix(1,0,0,1,33,0)">
                <path d="M70,11L75,18L45,18L50,11L70,11Z" style="fill:white;"/>
            </g>
            <g transform="matrix(1,0,0,1,68,0)">
                <path d="M70,11L75,18L45,18L50,11L70,11Z" style="fill:white;"/>
            </g>
            <g transform="matrix(1,0,0,1,103,0)">
                <path d="M70,11L75,18L45,18L50,11L70,11Z" style="fill:white;"/>
            </g>
            <g transform="matrix(1,0,0,1,138,0)">
                <path d="M70,11L75,18L45,18L50,11L70,11Z" style="fill:white;"/>
            </g>
        </g>
        <g transform="matrix(-1.07188e-15,1,1,1.07188e-15,3.12639e-13,-2.13163e-14)">
            <g transform="matrix(1,0,0,1,-2,0)">
                <path d="M70,11L75,18L45,18L50,11L70,11Z" style="fill:white;"/>
            </g>
            <g transform="matrix(1,0,0,1,33,0)">
                <path d="M70,11L75,18L45,18L50,11L70,11Z" style="fill:white;"/>
            </g>
            <g transform="matrix(1,0,0,1,68,0)">
                <path d="M70,11L75,18L45,18L50,11L70,11Z" style="fill:white;"/>
            </g>
            <g transform="matrix(1,0,0,1,103,0)">
                <path d="M70,11L75,18L45,18L50,11L70,11Z" style="fill:white;"/>
            </g>
            <g transform="matrix(1,0,0,1,138,0)">
                <path d="M70,11L75,18L45,18L50,11L70,11Z" style="fill:white;"/>
            </g>
        </g>
        <g transform="matrix(6.12323e-17,1,-1,6.12323e-17,256,-4.9738e-13)">
            <g transform="matrix(1,0,0,1,-2,0)">
                <path d="M70,11L75,18L45,18L50,11L70,11Z" style="fill:white;"/>
            </g>
            <g transform="matrix(1,0,0,1,33,0)">
                <path d="M70,11L75,18L45,18L50,11L70,11Z" style="fill:white;"/>
            </g>
            <g transform="matrix(1,0,0,1,68,0)">
                <path d="M70,11L75,18L45,18L50,11L70,11Z" style="fill:white;"/>
            </g>
            <g transform="matrix(1,0,0,1,103,0)">
                <path d="M70,11L75,18L45,18L50,11L70,11Z" style="fill:white;"/>
            </g>
            <g transform="matrix(1,0,0,1,138,0)">
                <path d="M70,11L75,18L45,18L50,11L70,11Z" style="fill:white;"/>
            </g>
        </g>
    </g>
</svg>
