<?xml version="1.0" encoding="UTF-8" standalone="no"?>
<!DOCTYPE svg PUBLIC "-//W3C//DTD SVG 1.1//EN" "http://www.w3.org/Graphics/SVG/1.1/DTD/svg11.dtd">
<svg width="100%" height="100%" viewBox="0 0 32 32" version="1.1" xmlns="http://www.w3.org/2000/svg" xmlns:xlink="http://www.w3.org/1999/xlink" xml:space="preserve" xmlns:serif="http://www.serif.com/" style="fill-rule:evenodd;clip-rule:evenodd;stroke-linecap:round;stroke-linejoin:round;stroke-miterlimit:1.5;">
    <g>
        <g transform="matrix(1,0,0,1,-0.5,0.777535)">
            <path d="M9,7.722L9,2.722C9,2.17 9.448,1.722 10,1.722L29,1.722C29.552,1.722 30,2.17 30,2.722L30,21.722C30,22.275 29.552,22.722 29,22.722L24,22.722L24,8.722C24,8.17 23.552,7.722 23,7.722L9,7.722Z" style="fill:rgb(82,82,91);stroke:rgb(82,82,91);stroke-width:1px;"/>
        </g>
        <g transform="matrix(1,0,0,1,-6.5,6.77753)">
            <path d="M29,1.722C29.552,1.722 30,2.17 30,2.722L30,21.722C30,22.275 29.552,22.722 29,22.722L10,22.722C9.448,22.722 9,22.275 9,21.722L9,2.722C9,2.17 9.448,1.722 10,1.722L29,1.722Z" style="fill:none;stroke:rgb(82,82,91);stroke-width:1px;"/>
        </g>
    </g>
</svg>
